<svg width="27" height="26" viewBox="0 0 27 26" fill="none" xmlns="http://www.w3.org/2000/svg">
<path d="M3.85714 3.71429C3.85714 2.7292 4.26352 1.78445 4.98687 1.08789C5.71023 0.391325 6.69131 0 7.71429 0C8.73726 0 9.71834 0.391325 10.4417 1.08789C11.1651 1.78445 11.5714 2.7292 11.5714 3.71429C11.5714 4.69938 11.1651 5.64412 10.4417 6.34068C9.71834 7.03725 8.73726 7.42857 7.71429 7.42857C6.69131 7.42857 5.71023 7.03725 4.98687 6.34068C4.26352 5.64412 3.85714 4.69938 3.85714 3.71429ZM16.9309 6.656L17.0119 6.71543C17.8302 7.29951 18.8552 7.5482 19.8632 7.40723C20.8712 7.26627 21.7803 6.74708 22.3923 5.96298C23.0042 5.17888 23.2692 4.19353 23.1295 3.22196C22.9898 2.25039 22.4566 1.37148 21.6464 0.77705C20.8362 0.182617 19.8147 -0.0790835 18.8049 0.0490604C17.7951 0.177204 16.8789 0.684789 16.2562 1.46104C15.6336 2.23729 15.3551 3.21919 15.4815 4.19245C15.6079 5.16571 16.1289 6.05132 16.9309 6.656ZM10.1597 9.28571C10.4019 8.84402 10.7342 8.45391 11.1366 8.13872C11.539 7.82354 12.0033 7.58976 12.5017 7.45136C13.0002 7.31296 13.5224 7.27279 14.0373 7.33325C14.5522 7.39371 15.0492 7.55356 15.4985 7.80324C15.9477 8.05292 16.3401 8.3873 16.652 8.78637C16.964 9.18544 17.1892 9.641 17.3141 10.1258C17.439 10.6106 17.4611 11.1147 17.379 11.6079C17.2969 12.1011 17.1124 12.5733 16.8364 12.9963C16.3055 13.81 15.4678 14.3938 14.4993 14.6252C13.5307 14.8566 12.5067 14.7175 11.6425 14.2372C10.7782 13.7569 10.1408 12.9727 9.86432 12.0493C9.58783 11.126 9.69371 10.1354 10.1597 9.28571ZM2.89286 9.28571H8.04214C7.69938 10.2283 7.62486 11.2421 7.8263 12.2218C8.02774 13.2015 8.49781 14.1114 9.18771 14.8571H8.67857C7.68427 14.857 6.71422 15.1528 5.90121 15.704C5.08819 16.2552 4.47193 17.0348 4.13679 17.9363C3.48943 17.6859 2.88331 17.3462 2.33743 16.9279C0.887143 15.8043 0 14.144 0 12.0714C0 11.3326 0.304782 10.6241 0.847298 10.1016C1.38981 9.57921 2.12562 9.28571 2.89286 9.28571ZM18.3214 14.8571C20.4139 14.8571 22.1959 16.1404 22.8632 17.9363C23.5189 17.6781 24.1245 17.342 24.6626 16.9279C26.1129 15.8043 27 14.144 27 12.0714C27 11.3326 26.6952 10.6241 26.1527 10.1016C25.6102 9.57921 24.8744 9.28571 24.1071 9.28571H18.9579C19.17 9.867 19.2857 10.4929 19.2857 11.1429C19.2875 12.5136 18.7627 13.8366 17.8123 14.8571H18.3214ZM20.9964 18.4377C21.1371 18.7646 21.2143 19.1249 21.2143 19.5C21.2143 21.5726 20.3291 23.2329 18.8769 24.3564C17.4478 25.4614 15.5308 26 13.5 26C11.4692 26 9.55221 25.4614 8.12314 24.3564C6.67286 23.2329 5.78571 21.5726 5.78571 19.5C5.7847 19.1339 5.85883 18.7712 6.00385 18.4328C6.14887 18.0944 6.36191 17.7869 6.63074 17.528C6.89957 17.2691 7.21888 17.064 7.57032 16.9243C7.92176 16.7847 8.29839 16.7133 8.67857 16.7143H18.3214C18.8944 16.7142 19.4545 16.8779 19.9308 17.1847C20.407 17.4915 20.7779 17.9276 20.9964 18.4377Z" fill="white"/>
</svg>
