<svg width="29" height="26" viewBox="0 0 29 26" fill="none" xmlns="http://www.w3.org/2000/svg">
<path d="M0.725 16.5518C0.532718 16.5518 0.348312 16.6489 0.212348 16.8219C0.0763839 16.9949 0 17.2295 0 17.4741C0 17.7187 0.0763839 17.9533 0.212348 18.1263C0.348312 18.2992 0.532718 18.3964 0.725 18.3964H2.9C2.9 20.3533 3.51107 22.2301 4.59878 23.6138C5.68649 24.9976 7.16174 25.7749 8.7 25.7749H20.3C21.8383 25.7749 23.3135 24.9976 24.4012 23.6138C25.4889 22.2301 26.1 20.3533 26.1 18.3964H28.275C28.4673 18.3964 28.6517 18.2992 28.7877 18.1263C28.9236 17.9533 29 17.7187 29 17.4741C29 17.2295 28.9236 16.9949 28.7877 16.8219C28.6517 16.6489 28.4673 16.5518 28.275 16.5518H0.725Z" fill="white"/>
<path fill-rule="evenodd" clip-rule="evenodd" d="M13.8513 0L14.5001 0.411354L15.149 0.823631L15.1476 0.826398L15.1389 0.849456L15.1026 0.950911C14.9089 1.50119 14.763 2.07675 14.6676 2.66735C14.4965 3.75476 14.5596 4.71674 15.0127 5.29319C16.0096 6.56138 15.9465 8.36636 15.7551 9.58474C15.6302 10.3608 15.4341 11.1155 15.1708 11.8334L15.1563 11.873L15.1512 11.885L15.1497 11.8896L15.149 11.8905L14.5001 11.4792L13.8513 11.0669L13.8527 11.0641L13.8614 11.0411L13.8977 10.9396C14.0914 10.3894 14.2372 9.81379 14.3327 9.22319C14.5038 8.13578 14.4407 7.1738 13.9876 6.59735C12.9907 5.32916 13.0538 3.52418 13.2452 2.3058C13.37 1.52972 13.5661 0.775005 13.8295 0.057184L13.844 0.0175241L13.8491 0.00553439L13.8505 0.0018445L13.8513 0ZM8.09838 2.20158L8.70013 2.71807C9.30115 3.23365 9.30188 3.23273 9.30188 3.23273L9.29245 3.25118C9.22882 3.38026 9.16932 3.51257 9.1141 3.64777C8.97703 3.97876 8.86768 4.32716 8.78785 4.68723C8.61385 5.50993 8.6762 6.15925 9.1315 6.5872C10.3075 7.69583 10.2451 9.35324 10.0117 10.4517C9.90495 10.9399 9.75792 11.4123 9.57303 11.861C9.49218 12.0587 9.40436 12.2517 9.30985 12.4393L9.30405 12.4504L9.3026 12.4541L9.30188 12.455C9.30188 12.455 9.30115 12.4568 8.70013 11.9403C8.0991 11.4238 8.09838 11.4248 8.09838 11.4248L8.1078 11.4072L8.14695 11.3279C8.19574 11.2239 8.24216 11.1181 8.28615 11.0106C8.39853 10.7358 8.52758 10.3669 8.6124 9.97027C8.7864 9.14756 8.72405 8.49917 8.26875 8.07029C7.0928 6.96167 7.15515 5.30518 7.3886 4.20578C7.50823 3.64132 7.68513 3.14511 7.82723 2.79647C7.90815 2.59913 7.99597 2.40648 8.0904 2.2191L8.09548 2.20803L8.09765 2.20342L8.09838 2.20158ZM20.4234 2.20158L21.0251 2.71807C21.6262 3.23365 21.6269 3.23273 21.6269 3.23273L21.6175 3.25118C21.5538 3.38026 21.4943 3.51257 21.4391 3.64777C21.302 3.97876 21.1927 4.32716 21.1129 4.68723C20.9389 5.50993 21.0012 6.15925 21.4565 6.5872C22.6325 7.69583 22.5701 9.35324 22.3366 10.4517C22.2299 10.9399 22.0829 11.4123 21.898 11.861C21.8174 12.0587 21.7298 12.2517 21.6356 12.4393L21.6298 12.4504L21.6276 12.4541L21.6269 12.455C21.6269 12.455 21.6262 12.4568 21.0251 11.9403C20.4241 11.4238 20.4234 11.4248 20.4234 11.4248L20.4328 11.4072L20.472 11.3279C20.5207 11.2239 20.5672 11.1181 20.6112 11.0106C20.7235 10.7358 20.8526 10.3669 20.9374 9.97027C21.1114 9.14756 21.0491 8.49917 20.5938 8.07029C19.4178 6.96167 19.4802 5.30518 19.7136 4.20578C19.8332 3.64132 20.0101 3.14511 20.1522 2.79647C20.2329 2.59915 20.3205 2.4065 20.4147 2.2191L20.4205 2.20803L20.4227 2.20342L20.4234 2.20158Z" fill="white"/>
</svg>
