<svg width="26" height="26" viewBox="0 0 26 26" fill="none" xmlns="http://www.w3.org/2000/svg">
<path fill-rule="evenodd" clip-rule="evenodd" d="M20.8 3.46667H23.4C24.0896 3.46667 24.7509 3.74059 25.2385 4.22819C25.7261 4.71578 26 5.3771 26 6.06667V23.4C26 24.0896 25.7261 24.7509 25.2385 25.2385C24.7509 25.7261 24.0896 26 23.4 26H2.6C1.91044 26 1.24912 25.7261 0.761522 25.2385C0.273928 24.7509 0 24.0896 0 23.4L0 6.06667C0 5.3771 0.273928 4.71578 0.761522 4.22819C1.24912 3.74059 1.91044 3.46667 2.6 3.46667H5.2V0H6.93333V3.46667H19.0667V0H20.8V3.46667ZM10.4 13.8667H5.2V12.1333H10.4V13.8667ZM20.8 12.1333H15.6V13.8667H20.8V12.1333ZM10.4 19.0667H5.2V17.3333H10.4V19.0667ZM15.6 19.0667H20.8V17.3333H15.6V19.0667Z" fill="white"/>
</svg>
