<svg width="18" height="23" viewBox="0 0 18 23" fill="none" xmlns="http://www.w3.org/2000/svg">
<path d="M11.961 5.17087C12.7307 5.17087 13.4688 4.89848 14.013 4.41362C14.5572 3.92875 14.863 3.27114 14.863 2.58544C14.863 1.89974 14.5572 1.24212 14.013 0.757257C13.4688 0.272393 12.7307 0 11.961 0C11.1914 0 10.4532 0.272393 9.90901 0.757257C9.36479 1.24212 9.05905 1.89974 9.05905 2.58544C9.05905 3.27114 9.36479 3.92875 9.90901 4.41362C10.4532 4.89848 11.1914 5.17087 11.961 5.17087ZM6.13129 7.63106C5.32712 7.80917 4.77833 8.0769 4.33529 8.40899C3.67107 8.90769 3.13453 9.62702 2.40968 10.7577C2.23993 11.0223 1.95915 11.216 1.62911 11.2962C1.29907 11.3763 0.946798 11.3364 0.6498 11.1852C0.352801 11.0339 0.135399 10.7838 0.0454206 10.4897C-0.0445577 10.1957 0.000257668 9.88186 0.170008 9.61725C0.89163 8.49287 1.62099 7.44089 2.67408 6.65147C3.77296 5.82643 5.11818 5.3599 6.93223 5.18007C7.69061 5.10538 8.52508 5.12031 9.30733 5.43114C10.1283 5.75806 10.728 6.34351 11.1369 7.12604C11.6876 8.17917 12.0971 8.806 12.4247 9.16968C12.5827 9.34377 12.6929 9.42478 12.7555 9.46097C12.8052 9.4897 12.8264 9.492 12.8342 9.49315C12.8903 9.4989 13.0728 9.49315 13.6067 9.28229C13.8395 9.19037 14.0936 9.08005 14.4045 8.94504L14.4786 8.91286C14.8588 8.74573 15.2423 8.58483 15.6291 8.43025C15.9413 8.30812 16.2952 8.30114 16.6132 8.41083C16.9312 8.52052 17.1875 8.73796 17.3261 9.01559C17.4646 9.29321 17.4741 9.60841 17.3525 9.89226C17.2308 10.1761 16.988 10.4055 16.677 10.5302C16.3186 10.6735 15.9632 10.8227 15.611 10.9778L15.5266 11.0145C15.2293 11.1438 14.93 11.2742 14.6495 11.3845C14.0691 11.6132 13.3275 11.8614 12.5233 11.7747C11.6747 11.6827 11.0208 11.2558 10.4823 10.683L8.71984 13.7126L11.1575 16.5382C11.3026 16.7071 11.3922 16.9082 11.4174 17.1196L11.9539 21.7136C11.9744 21.865 11.9608 22.0185 11.914 22.1651C11.8672 22.3118 11.7881 22.4486 11.6814 22.5678C11.5746 22.6869 11.4423 22.786 11.2922 22.8591C11.1421 22.9323 10.9771 22.978 10.8069 22.9938C10.6367 23.0096 10.4647 22.9951 10.3009 22.951C10.137 22.907 9.98469 22.8344 9.85268 22.7373C9.72068 22.6403 9.61167 22.5209 9.53199 22.386C9.45231 22.2511 9.40356 22.1034 9.38858 21.9515L8.88944 17.6809L7.4088 15.9642L7.3959 15.9855L7.34173 15.8866L4.60614 12.7152C4.47167 12.5593 4.38433 12.3753 4.35249 12.1807C4.32065 11.9862 4.34537 11.7876 4.42429 11.604L6.13129 7.63106Z" fill="white"/>
<path d="M6.09859 12.8633L5.14933 15.1385L1.40902 14.8742C1.23897 14.8601 1.06747 14.8763 0.904482 14.9217C0.741495 14.9672 0.590262 15.041 0.459562 15.139C0.328861 15.2369 0.221295 15.357 0.143106 15.4923C0.0649167 15.6275 0.0176617 15.7753 0.00408306 15.927C-0.00949554 16.0787 0.0108726 16.2312 0.0640056 16.3758C0.117139 16.5204 0.201978 16.6542 0.313601 16.7694C0.425224 16.8845 0.561407 16.9788 0.714247 17.0467C0.867087 17.1146 1.03354 17.1547 1.20395 17.1649L5.91674 17.4981C6.19643 17.5179 6.47576 17.456 6.71235 17.3216C6.94894 17.1872 7.1299 16.9878 7.22778 16.7535L7.95327 15.0138L6.09859 12.8633Z" fill="white"/>
</svg>
