<svg width="52" height="52" viewBox="0 0 52 52" fill="none" xmlns="http://www.w3.org/2000/svg">
<circle cx="25.6211" cy="25.6211" r="25.6211" fill="white"/>
<path d="M17.2785 25.9065C16.8251 25.9065 16.4518 25.7599 16.1585 25.4665C15.8651 25.1732 15.7185 24.8132 15.7185 24.3865C15.7185 23.9599 15.8651 23.6132 16.1585 23.3465C16.4518 23.0532 16.8251 22.9065 17.2785 22.9065H33.6785C34.1318 22.9065 34.5051 23.0532 34.7985 23.3465C35.0918 23.6399 35.2385 23.9999 35.2385 24.4265C35.2385 24.8532 35.0918 25.2132 34.7985 25.5065C34.5051 25.7732 34.1318 25.9065 33.6785 25.9065H17.2785ZM25.4385 34.2665C24.9585 34.2665 24.5451 34.1065 24.1985 33.7865C23.8785 33.4665 23.7185 33.0665 23.7185 32.5865V16.0665C23.7185 15.5599 23.8785 15.1465 24.1985 14.8265C24.5451 14.5065 24.9718 14.3465 25.4785 14.3465C25.9851 14.3465 26.3851 14.5065 26.6785 14.8265C26.9985 15.1465 27.1585 15.5599 27.1585 16.0665V32.5465C27.1585 33.0532 26.9985 33.4665 26.6785 33.7865C26.3585 34.1065 25.9451 34.2665 25.4385 34.2665Z" fill="#1E1E1E"/>
</svg>
