<svg width="35" height="34" viewBox="0 0 35 34" fill="none" xmlns="http://www.w3.org/2000/svg">
<path d="M0 28.8656C0 31.7485 2.275 33.953 5.25 33.953H29.75C32.725 33.953 35 31.7485 35 28.8656V15.2993H0V28.8656ZM29.75 3.4287H26.25V1.7329C26.25 0.715427 25.55 0.0371094 24.5 0.0371094C23.45 0.0371094 22.75 0.715427 22.75 1.7329V3.4287H12.25V1.7329C12.25 0.715427 11.55 0.0371094 10.5 0.0371094C9.45 0.0371094 8.75 0.715427 8.75 1.7329V3.4287H5.25C2.275 3.4287 0 5.63323 0 8.51608V11.9077H35V8.51608C35 5.63323 32.725 3.4287 29.75 3.4287Z" fill="#FFB459"/>
</svg>
