<svg width="32" height="33" viewBox="0 0 32 33" fill="none" xmlns="http://www.w3.org/2000/svg">
<path d="M15.9231 6.85939C18.1938 6.82447 20.3898 7.6701 22.0502 9.21884L26.5225 4.84723C23.6532 2.15959 19.855 0.685841 15.9231 0.734569C12.9853 0.733891 10.1053 1.55015 7.60506 3.09206C5.10483 4.63398 3.08298 6.84075 1.76562 9.4656L6.89011 13.4427C7.5167 11.5382 8.72556 9.87829 10.3462 8.69716C11.9668 7.51602 13.9175 6.87322 15.9231 6.85939V6.85939Z" fill="#E43E2B"/>
<path d="M31.1361 16.9288C31.1547 15.8398 31.0422 14.7525 30.8008 13.6904H15.9226V19.57H24.6569C24.4912 20.6008 24.1187 21.5875 23.5617 22.4707C23.0047 23.3539 22.2748 24.1154 21.4158 24.7093L26.4169 28.5813C27.9755 27.0771 29.2012 25.2629 30.0148 23.2557C30.8285 21.2486 31.212 19.0932 31.1406 16.9288H31.1361Z" fill="#3B7DED"/>
<path d="M6.90836 19.7084C6.56188 18.6999 6.38325 17.6415 6.37961 16.5752C6.38593 15.5106 6.55815 14.4535 6.89008 13.4419L1.76559 9.46484C0.654136 11.6707 0.0751953 14.1061 0.0751953 16.5759C0.0751953 19.0458 0.654136 21.4812 1.76559 23.687L6.90836 19.7084Z" fill="#F0B501"/>
<path d="M15.9231 32.4181C19.7833 32.5272 23.5387 31.1542 26.4174 28.5811L21.4164 24.7091C19.7948 25.7958 17.8745 26.3496 15.9231 26.2933C13.9192 26.2814 11.97 25.639 10.3519 24.4573C8.73378 23.2756 7.52899 21.6146 6.90842 19.71L1.78394 23.6886C3.09774 26.3123 5.11628 28.5185 7.6135 30.0603C10.1107 31.6021 12.988 32.4185 15.9231 32.4181Z" fill="#2BA24C"/>
</svg>
