<svg width="20" height="21" viewBox="0 0 20 21" fill="none" xmlns="http://www.w3.org/2000/svg">
<mask id="path-1-inside-1_408_9380" fill="white">
<path d="M20 16.8683V17.8553H0V16.8683L2.22222 14.8944V8.97257C2.22222 5.91297 4.47778 3.21854 7.77778 2.35V2.06378C7.77778 1.54026 8.0119 1.03818 8.42865 0.667997C8.8454 0.297812 9.41063 0.0898438 10 0.0898438C10.5894 0.0898438 11.1546 0.297812 11.5713 0.667997C11.9881 1.03818 12.2222 1.54026 12.2222 2.06378V2.35C15.5222 3.21854 17.7778 5.91297 17.7778 8.97257V14.8944L20 16.8683ZM12.2222 18.8423C12.2222 19.3658 11.9881 19.8679 11.5713 20.2381C11.1546 20.6082 10.5894 20.8162 10 20.8162C9.41063 20.8162 8.8454 20.6082 8.42865 20.2381C8.0119 19.8679 7.77778 19.3658 7.77778 18.8423"/>
</mask>
<path d="M20 16.8683H22V15.9698L21.3282 15.3731L20 16.8683ZM20 17.8553V19.8553H22V17.8553H20ZM0 17.8553H-2V19.8553H0V17.8553ZM0 16.8683L-1.32821 15.3731L-2 15.9698V16.8683H0ZM2.22222 14.8944L3.55044 16.3897L4.22222 15.7929V14.8944H2.22222ZM7.77778 2.35L8.28683 4.28414L9.77778 3.89173V2.35H7.77778ZM10 0.0898438V-1.91016V0.0898438ZM12.2222 2.35H10.2222V3.89173L11.7132 4.28414L12.2222 2.35ZM17.7778 14.8944H15.7778V15.7929L16.4496 16.3897L17.7778 14.8944ZM18 16.8683V17.8553H22V16.8683H18ZM20 15.8553H0V19.8553H20V15.8553ZM2 17.8553V16.8683H-2V17.8553H2ZM1.32821 18.3636L3.55044 16.3897L0.894009 13.3991L-1.32821 15.3731L1.32821 18.3636ZM4.22222 14.8944V8.97257H0.222222V14.8944H4.22222ZM4.22222 8.97257C4.22222 6.95577 5.72846 4.95748 8.28683 4.28414L7.26873 0.415872C3.22709 1.4796 0.222222 4.87016 0.222222 8.97257H4.22222ZM9.77778 2.35V2.06378H5.77778V2.35H9.77778ZM9.77778 2.06378C9.77778 2.10269 9.76865 2.13411 9.75955 2.15364C9.75075 2.1725 9.7454 2.17346 9.75687 2.16327L7.10044 -0.827279C6.28768 -0.105326 5.77778 0.928208 5.77778 2.06378H9.77778ZM9.75687 2.16327C9.78531 2.13801 9.8696 2.08984 10 2.08984L10 -1.91016C8.95166 -1.91016 7.90549 -1.54238 7.10044 -0.827279L9.75687 2.16327ZM10 2.08984C10.1304 2.08984 10.2147 2.13801 10.2431 2.16327L12.8996 -0.827279C12.0945 -1.54238 11.0483 -1.91016 10 -1.91016L10 2.08984ZM10.2431 2.16327C10.2546 2.17346 10.2493 2.1725 10.2405 2.15364C10.2313 2.13411 10.2222 2.10269 10.2222 2.06378H14.2222C14.2222 0.928208 13.7123 -0.105326 12.8996 -0.827279L10.2431 2.16327ZM10.2222 2.06378V2.35H14.2222V2.06378H10.2222ZM11.7132 4.28414C14.2715 4.95748 15.7778 6.95577 15.7778 8.97257H19.7778C19.7778 4.87016 16.7729 1.4796 12.7313 0.415872L11.7132 4.28414ZM15.7778 8.97257V14.8944H19.7778V8.97257H15.7778ZM16.4496 16.3897L18.6718 18.3636L21.3282 15.3731L19.106 13.3991L16.4496 16.3897ZM10.2222 18.8423C10.2222 18.8034 10.2313 18.772 10.2405 18.7524C10.2493 18.7336 10.2546 18.7326 10.2431 18.7428L12.8996 21.7333C13.7123 21.0114 14.2222 19.9778 14.2222 18.8423H10.2222ZM10.2431 18.7428C10.2147 18.7681 10.1304 18.8162 10 18.8162V22.8162C11.0483 22.8162 12.0945 22.4484 12.8996 21.7333L10.2431 18.7428ZM10 18.8162C9.8696 18.8162 9.78531 18.7681 9.75687 18.7428L7.10044 21.7333C7.90549 22.4484 8.95166 22.8162 10 22.8162V18.8162ZM9.75687 18.7428C9.7454 18.7326 9.75075 18.7336 9.75955 18.7524C9.76865 18.772 9.77778 18.8034 9.77778 18.8423H5.77778C5.77778 19.9778 6.28768 21.0114 7.10044 21.7333L9.75687 18.7428Z" fill="black" mask="url(#path-1-inside-1_408_9380)"/>
</svg>
