<svg width="37" height="35" viewBox="0 0 37 35" fill="none" xmlns="http://www.w3.org/2000/svg">
<ellipse cx="18.6863" cy="17.4998" rx="18.2657" ry="16.8103" fill="black"/>
<path d="M10.1624 16.9398C10.1624 16.4369 10.5701 16.0292 11.073 16.0292H22.1834L17.4197 11.645C17.0038 11.2623 17.0096 10.6041 17.4321 10.2287C17.7986 9.90309 18.3521 9.90795 18.7128 10.2399L25.9003 16.8548C25.95 16.9005 25.95 16.979 25.9003 17.0248L18.7143 23.6382C18.3544 23.9694 17.8007 23.9694 17.4408 23.6382C17.0374 23.2669 17.036 22.6306 17.4378 22.2574L22.1834 17.8503H11.073C10.5701 17.8503 10.1624 17.4426 10.1624 16.9398Z" fill="white"/>
</svg>
