<svg width="21" height="26" viewBox="0 0 21 26" fill="none" xmlns="http://www.w3.org/2000/svg">
<path d="M14.5252 5.62769C15.3306 5.62769 16.103 5.33123 16.6725 4.80353C17.2419 4.27584 17.5619 3.56012 17.5619 2.81385C17.5619 2.06757 17.2419 1.35185 16.6725 0.824156C16.103 0.296458 15.3306 0 14.5252 0C13.7198 0 12.9475 0.296458 12.378 0.824156C11.8085 1.35185 11.4886 2.06757 11.4886 2.81385C11.4886 3.56012 11.8085 4.27584 12.378 4.80353C12.9475 5.33123 13.7198 5.62769 14.5252 5.62769ZM8.42491 8.30522C7.58341 8.49906 7.00915 8.79045 6.54555 9.15188C5.85049 9.69464 5.28905 10.4775 4.53056 11.7081C4.35293 11.9961 4.05912 12.2069 3.71376 12.2941C3.3684 12.3814 2.99978 12.3379 2.68899 12.1733C2.37821 12.0087 2.15072 11.7365 2.05656 11.4165C1.96241 11.0964 2.0093 10.7549 2.18693 10.4669C2.94205 9.24317 3.70526 8.09825 4.80723 7.23909C5.95712 6.34116 7.36478 5.83341 9.26302 5.6377C10.0566 5.55641 10.9298 5.57267 11.7484 5.91095C12.6074 6.26675 13.235 6.90393 13.6628 7.75558C14.2391 8.90176 14.6676 9.58396 15.0104 9.97977C15.1757 10.1692 15.2911 10.2574 15.3566 10.2968C15.4085 10.3281 15.4308 10.3306 15.4389 10.3318C15.4976 10.3381 15.6886 10.3318 16.2473 10.1023C16.4909 10.0023 16.7568 9.88223 17.0821 9.73528L17.1597 9.70026C17.5575 9.51837 17.9588 9.34326 18.3636 9.17501C18.6903 9.04209 19.0606 9.03449 19.3933 9.15388C19.7261 9.27326 19.9943 9.50991 20.1393 9.81206C20.2843 10.1142 20.2942 10.4573 20.1669 10.7662C20.0397 11.0751 19.7855 11.3247 19.4601 11.4605C19.0851 11.6165 18.7132 11.7789 18.3447 11.9476L18.2563 11.9876C17.9452 12.1283 17.6321 12.2702 17.3385 12.3903C16.7312 12.6392 15.9551 12.9093 15.1137 12.8149C14.2256 12.7148 13.5413 12.2502 12.9779 11.6268L11.1336 14.924L13.6844 17.9992C13.8362 18.1831 13.93 18.4019 13.9564 18.632L14.5178 23.6319C14.5392 23.7967 14.525 23.9637 14.476 24.1233C14.4271 24.2829 14.3443 24.4319 14.2326 24.5615C14.1209 24.6912 13.9825 24.799 13.8254 24.8786C13.6683 24.9582 13.4956 25.008 13.3175 25.0252C13.1394 25.0424 12.9594 25.0265 12.788 24.9786C12.6166 24.9307 12.4572 24.8516 12.319 24.7461C12.1809 24.6405 12.0668 24.5105 11.9835 24.3637C11.9001 24.2168 11.8491 24.0561 11.8334 23.8908L11.3111 19.243L9.76171 17.3746L9.74822 17.3977L9.69153 17.2901L6.82897 13.8385C6.68825 13.6688 6.59687 13.4686 6.56355 13.2568C6.53023 13.0451 6.5561 12.829 6.63868 12.6292L8.42491 8.30522Z" fill="white"/>
<path d="M6.38166 15.6367L5.38834 18.1129L1.47442 17.8253C1.29647 17.81 1.11702 17.8275 0.946464 17.877C0.775911 17.9265 0.61766 18.0068 0.480892 18.1134C0.344125 18.22 0.231566 18.3507 0.149748 18.498C0.0679299 18.6452 0.0184814 18.806 0.00427258 18.9711C-0.00993628 19.1361 0.0113772 19.3022 0.0669764 19.4596C0.122576 19.617 0.211353 19.7625 0.328157 19.8879C0.444961 20.0132 0.587465 20.1158 0.747399 20.1897C0.907334 20.2636 1.08151 20.3073 1.25983 20.3183L6.19136 20.681C6.48404 20.7026 6.77633 20.6351 7.02391 20.4889C7.27148 20.3427 7.46084 20.1256 7.56326 19.8706L8.32243 17.9772L6.38166 15.6367Z" fill="white"/>
</svg>
